<svg version="1.1" id="Layer_1" xmlns:x="ns_extend;" xmlns:i="ns_ai;" xmlns:graph="ns_graphs;" xmlns="http://www.w3.org/2000/svg" xmlns:xlink="http://www.w3.org/1999/xlink" x="0px" y="0px" viewBox="0 0 523.8 120" style="enable-background:new 0 0 523.8 120;" xml:space="preserve">
 <style type="text/css">
  .st0{fill:#813FD6;}
	.st1{opacity:0.7;fill:#813FD6;fill-opacity:0.6;enable-background:new    ;}
 </style>
 <metadata>
  <sfw xmlns="ns_sfw;">
   <slices>
   </slices>
   <sliceSourceBounds bottomLeftOrigin="true" height="120" width="523.7" x="0" y="0">
   </sliceSourceBounds>
  </sfw>
 </metadata>
 <g>
  <g>
   <path class="st0" d="M53.8,120L12.6,97.2L0,52.7l23.3-40.2L69.3,0l40.8,22.9l12.6,44.5l-23.3,40.2L53.8,120z M17.5,93.4l37,20.5
			l41-11.1l20.9-36.1l-11.2-40L68.6,6.1L27.2,17.3L6.3,53.4L17.5,93.4z">
   </path>
  </g>
  <path class="st1" d="M55,43.4h-0.4l-5.9,17L48,62.5c-0.2,0.7-0.2,1.4,0,2L53.8,81c0.3,0.9,1,1.6,1.9,1.9l1.1,0.4l6-17.1l0.8-2.3
		c0.2-0.6,0.2-1.3,0-2l-5.8-16.5C57.3,44.3,56.2,43.4,55,43.4z">
  </path>
  <path class="st1" d="M95.8,42.2H83.3c-0.7,0-1.4,0.4-1.6,1.1l-5.8,16.6l-0.5,1.4c-0.3,1-0.3,2.1,0,3.1l6.2,17.9
		c0.2,0.6,0.9,1.1,1.6,1c0.2,0,0.4,0,0.6-0.1l13.6-38.8c0.2-0.5,0.1-1.1-0.2-1.5C96.8,42.5,96.3,42.2,95.8,42.2z">
  </path>
  <path class="st0" d="M55.1,84.4H42.6c-0.7,0-1.4-0.4-1.6-1.1L27.5,44.4c-0.2-0.5-0.1-1.1,0.2-1.5c0.3-0.4,0.8-0.7,1.4-0.7h12.5
		c0.7,0,1.4,0.4,1.6,1.1l13.6,38.9c0.2,0.5,0.1,1.1-0.2,1.5C56.1,84.1,55.6,84.4,55.1,84.4L55.1,84.4z">
  </path>
  <path class="st0" d="M82.2,84.4H69.7c-0.7,0-1.4-0.4-1.6-1.1L54.6,44.4c-0.2-0.5-0.1-1.1,0.2-1.5c0.3-0.4,0.8-0.7,1.4-0.7h12.5
		c0.7,0,1.4,0.4,1.6,1.1l13.6,38.9c0.2,0.5,0.1,1.1-0.2,1.5C83.3,84.1,82.8,84.4,82.2,84.4L82.2,84.4z">
  </path>
  <path class="st0" d="M155.5,36.9h13.6l7.6,30.4l8.8-30.4h10l8.8,30.4l7.7-30.4h13.6l-13.8,48.3h-13.4l-7.9-27.3l-7.9,27.3h-13.2
		L155.5,36.9z">
  </path>
  <path class="st0" d="M240,49.7c-10.5,0-18.9,7.9-18.9,18.2s8.5,18.2,18.9,18.2c10.5,0,18.9-7.9,18.9-18.2
		C258.9,57.7,250.5,49.7,240,49.7z M240,60.8c4.1,0,7.1,2.9,7.1,7.2s-3,7.2-7.1,7.2c-4,0-7.1-2.9-7.1-7.2S236,60.8,240,60.8z">
  </path>
  <path class="st0" d="M284.6,50v12.7c-4.7-0.7-10.6,1.4-10.6,8.2v14.3h-11.7V50.7H274v6.4C275.4,52.4,279.9,50,284.6,50z">
  </path>
  <path class="st0" d="M287.9,34.8h11.7v50.4h-11.7V34.8z">
  </path>
  <path class="st0" d="M340.7,85.2V36.9H329v17c-2.3-2.6-5.5-4.1-10-4.1c-9.5,0-16.6,7.9-16.6,18.2c0,10.4,7.1,18.2,16.6,18.2
		c4.5,0,7.8-1.5,10-4.1v3.2h11.7V85.2z M321.5,60.4c4.4,0,7.4,3,7.4,7.5s-3,7.5-7.4,7.5s-7.4-3-7.4-7.5
		C314.1,63.5,317.1,60.4,321.5,60.4z M328.9,67.9L328.9,67.9L328.9,67.9L328.9,67.9z">
  </path>
  <path class="st0" d="M361.2,69.6h4.5l8.6,15.6h13.6l-10.2-17.9c5.1-2.8,8.4-7.8,8.4-13.7c0-9.7-7.8-16.7-17.8-16.7h-19.8v48.3h12.6
		L361.2,69.6L361.2,69.6z M368.2,59.1h-7V48.3h7c3.1,0,5.3,2.3,5.3,5.5S371.3,59.2,368.2,59.1z">
  </path>
  <path class="st0" d="M412.8,74c-1.7,1.6-3.9,2.4-6.4,2.4c-3.4,0-6.5-0.9-7.9-4.2h24.4c0.3-1.4,0.5-2.8,0.5-4.3
		c0-10.4-7.6-18.2-18.2-18.2c-11,0-18.8,7.9-18.8,18.3c0,10.2,7.6,18.2,19.8,18.2c6.3,0,11.7-2.1,15.2-6.4L412.8,74z M405.2,59.4
		c2.8,0,5.6,1.2,6.6,4.8h-13.5C399.3,61,401.8,59.4,405.2,59.4z">
  </path>
  <path class="st0" d="M481.2,64.1v21.1h-11.8V65.4c0-3-1.4-4.8-4.4-4.8c-3.3,0-4.9,2.3-4.9,5.8v18.8h-11.7V65.4c0-3-1.5-4.8-4.5-4.8
		c-3.2,0-4.9,2.3-4.9,5.8v18.8h-11.7V50.7H439v3.2c1.9-2.5,5-4.2,9.5-4.2c4.2,0,7.1,1.6,9,4.4c2.2-2.6,5.4-4.4,10.2-4.4
		C476,49.7,481.2,55.1,481.2,64.1z">
  </path>
  <path class="st0" d="M493.7,35.2c-5.5-2.3-11.1,3-9,8.4c0.6,1.6,1.9,2.9,3.6,3.6c5.6,2.4,11.3-3.1,9-8.5
		C496.6,37.2,495.3,35.9,493.7,35.2z M496.9,50.7h-11.7v34.5h11.7V50.7z">
  </path>
  <path class="st0" d="M516.4,61.7v10c0,3.2,2.6,3.5,7.3,3.2v10.4c-14.4,1.7-19.1-2.6-19.1-13.3V61.7h-4.1v-11h4.1v-6.2l11.8-3.5v9.7
		h7.3v11H516.4z">
  </path>
 </g>
</svg>