<?xml version="1.0" encoding="utf-8"?>
<!-- Generator: Adobe Illustrator 21.0.2, SVG Export Plug-In . SVG Version: 6.00 Build 0)  -->
<svg version="1.1" id="Layer_1" xmlns="http://www.w3.org/2000/svg" xmlns:xlink="http://www.w3.org/1999/xlink" x="0px" y="0px"
	 viewBox="0 0 372.1 130" style="enable-background:new 0 0 372.1 130;" xml:space="preserve">
<style type="text/css">
	.st0{fill:#737474;}
	.st1{fill:#159BD7;}
	.st2{fill:#263B80;}
	.st3{clip-path:url(#SVGID_2_);fill:#159BD7;}
	.st4{clip-path:url(#SVGID_4_);fill:#159BD7;}
</style>
<g>
	<path class="st0" d="M110.4,105.4l-4.8,9.2h6.7L110.4,105.4L110.4,105.4z M104.4,116.9l-2.3,4.5h-2.9l10.4-19.6h2.6l4.2,19.6h-2.7
		l-0.9-4.5H104.4L104.4,116.9z"/>
	<path class="st0" d="M291.2,120.2c1.1,0,2-0.2,2.7-0.6c0.7-0.4,1.2-0.9,1.6-1.6c0.3-0.6,0.5-1.3,0.5-2c0-0.6-0.2-1.1-0.5-1.5
		c-0.3-0.4-0.9-0.8-1.7-1.2l-2.6-1.1c-1.5-0.7-2.5-1.4-3.2-2.1c-0.6-0.8-1-1.7-1-2.8c0-1.2,0.3-2.3,0.9-3.2c0.6-0.9,1.5-1.6,2.6-2.1
		c1.1-0.5,2.4-0.7,3.8-0.7c1.2,0,2.2,0.2,3.1,0.5c0.9,0.3,1.7,0.8,2.3,1.4l-0.4,2.8c-1.5-1.4-3.3-2.1-5.3-2.1c-1.2,0-2.2,0.3-3,0.9
		c-0.8,0.6-1.2,1.4-1.2,2.3c0,0.5,0.2,1,0.6,1.4c0.4,0.4,1.1,0.8,2.1,1.3l2.5,1.1c1.4,0.7,2.3,1.4,2.9,2.2c0.6,0.8,0.8,1.7,0.8,2.8
		c0,1.2-0.3,2.4-0.8,3.4c-0.5,1-1.4,1.9-2.6,2.6c-1.2,0.7-2.7,1-4.6,1c-2.5,0-4.6-0.6-6-1.9l0.5-2.9
		C287.1,119.4,289,120.2,291.2,120.2"/>
	<path class="st0" d="M305.5,110.6c-0.9,0.8-1.6,1.8-1.9,3h8.6c0-0.2,0-0.4,0-0.7c0-1.1-0.3-2-0.9-2.6c-0.6-0.6-1.4-0.9-2.5-0.9
		C307.5,109.4,306.4,109.8,305.5,110.6 M313.3,108.8c1,1.1,1.5,2.5,1.5,4.2c0,0.6,0,1-0.1,1.4c-0.1,0.4-0.2,0.8-0.3,1.3h-11.1
		c-0.1,1.5,0.3,2.6,1.2,3.4c0.8,0.8,2,1.2,3.4,1.2c1,0,1.9-0.1,2.7-0.4c0.8-0.2,1.6-0.6,2.4-1.1l-0.4,2.2c-1.5,1-3.3,1.5-5.4,1.5
		c-1.4,0-2.5-0.3-3.5-0.9c-1-0.6-1.8-1.4-2.3-2.4c-0.5-1-0.8-2.2-0.8-3.5c0-1.3,0.3-2.6,0.9-3.9c0.6-1.4,1.6-2.5,2.9-3.4
		c1.3-0.9,2.9-1.4,4.7-1.4C310.9,107.2,312.3,107.7,313.3,108.8"/>
	<path class="st0" d="M323.9,109.9c-1.2,0-2.2,0.4-3,1.3c-0.8,0.8-1.3,2.1-1.6,3.7l-1.2,7.3h-2.6l2.3-14.5h2.5l-0.4,2.5
		c1.2-1.7,2.6-2.5,4.3-2.5c0.4,0,0.8,0,1.2,0.1l-0.4,2.3C324.7,109.9,324.3,109.9,323.9,109.9"/>
	<polygon class="st0" points="331.8,122.1 329.3,122.1 325.9,107.6 328.5,107.6 331,118.9 337,107.6 339.8,107.6 331.8,122.1 	"/>
	<path class="st0" d="M341.7,104.8c-0.3-0.3-0.4-0.6-0.4-1c0-0.5,0.2-1,0.6-1.3c0.4-0.4,0.9-0.6,1.4-0.6c0.4,0,0.8,0.1,1,0.4
		c0.3,0.3,0.4,0.6,0.4,1c0,0.5-0.2,0.9-0.6,1.3c-0.4,0.4-0.9,0.6-1.4,0.6C342.3,105.3,341.9,105.1,341.7,104.8 M341.4,122.1h-2.6
		l2.2-14.5h2.7L341.4,122.1L341.4,122.1z"/>
	<path class="st0" d="M347.5,121.7c-1-0.6-1.7-1.4-2.3-2.4c-0.6-1-0.8-2.1-0.8-3.4c0-1.5,0.4-3,1.1-4.3c0.7-1.3,1.7-2.4,3.1-3.2
		c1.3-0.8,2.9-1.2,4.7-1.2c1.7,0,3.1,0.4,4.2,1.3l-0.4,2.7c-1-1.1-2.3-1.6-3.9-1.6c-1.1,0-2.2,0.3-3.1,0.9c-0.9,0.6-1.6,1.3-2.1,2.3
		c-0.5,0.9-0.7,2-0.7,3.1c0,1.3,0.4,2.4,1.1,3.2c0.7,0.8,1.8,1.2,3.1,1.2c0.8,0,1.6-0.1,2.4-0.4c0.8-0.3,1.5-0.7,2.2-1.3l-0.4,2.7
		c-0.8,0.5-1.5,0.9-2.3,1.1c-0.8,0.2-1.6,0.3-2.5,0.3C349.6,122.6,348.5,122.3,347.5,121.7"/>
	<path class="st0" d="M362.8,110.6c-0.9,0.8-1.6,1.8-1.9,3h8.6c0-0.2,0-0.4,0-0.7c0-1.1-0.3-2-0.9-2.6c-0.6-0.6-1.4-0.9-2.5-0.9
		C364.8,109.4,363.7,109.8,362.8,110.6 M370.6,108.8c1,1.1,1.5,2.5,1.5,4.2c0,0.6,0,1-0.1,1.4c-0.1,0.4-0.2,0.8-0.3,1.3h-11.1
		c-0.1,1.5,0.3,2.6,1.2,3.4c0.8,0.8,2,1.2,3.4,1.2c1,0,1.9-0.1,2.7-0.4c0.8-0.2,1.6-0.6,2.4-1.1l-0.4,2.2c-1.5,1-3.3,1.5-5.4,1.5
		c-1.4,0-2.5-0.3-3.5-0.9c-1-0.6-1.8-1.4-2.3-2.4c-0.5-1-0.8-2.2-0.8-3.5c0-1.3,0.3-2.6,0.9-3.9c0.6-1.4,1.6-2.5,2.9-3.4
		c1.3-0.9,2.9-1.4,4.7-1.4C368.2,107.2,369.6,107.7,370.6,108.8"/>
	<path class="st1" d="M229.8,99.9c-0.6,4.2-3.9,4.2-7,4.2h-1.8l1.2-7.9c0.1-0.5,0.5-0.8,1-0.8h0.8c2.1,0,4.1,0,5.1,1.2
		C229.9,97.4,230.1,98.5,229.8,99.9 M228.5,89h-11.7c-0.8,0-1.5,0.6-1.6,1.4l-4.7,30.1c-0.1,0.6,0.4,1.1,1,1.1h6c0.6,0,1-0.4,1.1-1
		l1.3-8.5c0.1-0.8,0.8-1.4,1.6-1.4h3.7c7.7,0,12.2-3.7,13.4-11.2c0.5-3.2,0-5.8-1.5-7.6C235.4,90,232.4,89,228.5,89"/>
	<path class="st2" d="M146.2,99.9c-0.6,4.2-3.9,4.2-7,4.2h-1.8l1.2-7.9c0.1-0.5,0.5-0.8,1-0.8h0.8c2.1,0,4.1,0,5.1,1.2
		C146.2,97.4,146.4,98.5,146.2,99.9 M144.8,89h-11.7c-0.8,0-1.5,0.6-1.6,1.4l-4.7,30.1c-0.1,0.6,0.4,1.1,1,1.1h5.6
		c0.8,0,1.5-0.6,1.6-1.4l1.3-8.1c0.1-0.8,0.8-1.4,1.6-1.4h3.7c7.7,0,12.2-3.7,13.4-11.2c0.5-3.2,0-5.8-1.5-7.6
		C151.7,90,148.7,89,144.8,89"/>
	<path class="st2" d="M172,110.7c-0.5,3.2-3.1,5.4-6.3,5.4c-1.6,0-2.9-0.5-3.8-1.5c-0.8-1-1.1-2.4-0.9-3.9c0.5-3.2,3.1-5.4,6.3-5.4
		c1.6,0,2.9,0.5,3.7,1.5C172,107.8,172.3,109.2,172,110.7 M179.9,99.8h-5.6c-0.5,0-0.9,0.3-1,0.8l-0.2,1.6l-0.4-0.6
		c-1.2-1.8-3.9-2.4-6.6-2.4c-6.2,0-11.5,4.7-12.5,11.3c-0.5,3.3,0.2,6.4,2.1,8.6c1.7,2,4.2,2.9,7.1,2.9c5,0,7.8-3.2,7.8-3.2
		l-0.3,1.6c-0.1,0.6,0.4,1.1,1,1.1h5.1c0.8,0,1.5-0.6,1.6-1.4l3-19.2C180.9,100.3,180.5,99.8,179.9,99.8"/>
	<path class="st1" d="M255.7,110.7c-0.5,3.2-3.1,5.4-6.3,5.4c-1.6,0-2.9-0.5-3.8-1.5c-0.8-1-1.1-2.4-0.9-3.9
		c0.5-3.2,3.1-5.4,6.3-5.4c1.6,0,2.9,0.5,3.7,1.5C255.6,107.8,256,109.2,255.7,110.7 M263.5,99.8h-5.6c-0.5,0-0.9,0.3-1,0.8
		l-0.2,1.6l-0.4-0.6c-1.2-1.8-3.9-2.4-6.6-2.4c-6.2,0-11.5,4.7-12.5,11.3c-0.5,3.3,0.2,6.4,2.1,8.6c1.7,2,4.2,2.9,7.1,2.9
		c5,0,7.8-3.2,7.8-3.2l-0.3,1.6c-0.1,0.6,0.4,1.1,1,1.1h5.1c0.8,0,1.5-0.6,1.6-1.4l3-19.2C264.6,100.3,264.1,99.8,263.5,99.8"/>
	<path class="st2" d="M209.8,99.8h-5.6c-0.5,0-1,0.3-1.3,0.7L195,112l-3.3-11c-0.2-0.7-0.8-1.2-1.6-1.2h-5.6c-0.7,0-1.1,0.7-0.9,1.3
		l6.2,18.2l-5.8,8.2c-0.5,0.6,0,1.5,0.8,1.5h5.6c0.5,0,1-0.3,1.3-0.7l18.8-27.1C211,100.7,210.6,99.8,209.8,99.8"/>
	<g>
		<defs>
			<rect id="SVGID_1_" x="0" y="0.9" width="372.1" height="128.3"/>
		</defs>
		<clipPath id="SVGID_2_">
			<use href="#SVGID_1_"  style="overflow:visible;"/>
		</clipPath>
		<path class="st3" d="M270.2,89.8l-4.8,30.6c-0.1,0.6,0.4,1.1,1,1.1h4.8c0.8,0,1.5-0.6,1.6-1.4l4.7-30.1c0.1-0.6-0.4-1.1-1-1.1
			h-5.4C270.6,89,270.2,89.3,270.2,89.8"/>
		<path class="st3" d="M103.1,39.7c0-13.2,9.6-23.2,22.4-23.2c12.9,0,22.6,10.1,22.6,23.4v0.2c0,13.2-9.6,23.1-22.4,23.1
			c-12.9,0-22.6-10-22.6-23.4V39.7L103.1,39.7z M125.6,0.9C103,0.9,85.3,18,85.3,39.9v0.2c0,22.2,17.3,38.9,40.1,38.9
			c22.6,0,40.4-17.2,40.4-39.1v-0.2C165.8,17.6,148.5,0.9,125.6,0.9"/>
		<path class="st3" d="M189.9,39.7c0-13.2,9.6-23.2,22.4-23.2c12.9,0,22.6,10.1,22.6,23.4v0.2c0,13.2-9.6,23.1-22.4,23.1
			c-12.9,0-22.6-10-22.6-23.4V39.7L189.9,39.7z M212.4,0.9c-22.6,0-40.4,17.2-40.4,39.1v0.2c0,22.2,17.3,38.9,40.1,38.9
			c22.6,0,40.4-17.2,40.4-39.1v-0.2C252.6,17.6,235.3,0.9,212.4,0.9"/>
	</g>
	<path class="st1" d="M346,1.7c-9.5,0-17.2,3.7-23.7,11.3C318,5.7,310.6,1.7,301.3,1.7c-9.8,0-15.9,4.6-20.1,9.5V4.5
		c0-0.7-0.6-1.3-1.3-1.3h-16.1c-0.8,0-1.4,0.6-1.4,1.3v70.4c0,0.7,0.6,1.3,1.4,1.3h16.1c0.8,0,1.3-0.6,1.3-1.3V35.2
		c0-9.8,5.4-16.2,13.7-16.2c8.3,0,12.9,5.6,12.9,15.7v40.2c0,0.7,0.6,1.3,1.4,1.3h16.1c0.7,0,1.4-0.6,1.4-1.3V35.1
		c0-10.1,5.1-16.1,13.7-16.1c10.7,0,12.9,8.6,12.9,15.8v40.1c0,0.7,0.6,1.3,1.4,1.3h16.1c0.7,0,1.4-0.6,1.4-1.3v-45
		C372.1,12.2,362.3,1.7,346,1.7"/>
	<g>
		<defs>
			<rect id="SVGID_3_" x="0" y="0.9" width="372.1" height="128.3"/>
		</defs>
		<clipPath id="SVGID_4_">
			<use href="#SVGID_3_"  style="overflow:visible;"/>
		</clipPath>
		<path class="st4" d="M59.5,33.1c0.1,0.2,0.4,0.3,0.6,0.3c0.2,0,0.5-0.1,0.6-0.3l25-28.6C86,4.3,86,3.9,85.9,3.7
			c-0.1-0.3-0.4-0.5-0.8-0.5H63.5c-0.2,0-0.5,0.1-0.6,0.3L48.7,19.7c-0.3,0.3-0.3,0.8,0,1.1L59.5,33.1L59.5,33.1z"/>
		<path class="st4" d="M56.4,36.5L27.6,3.5c-0.2-0.2-0.4-0.3-0.6-0.3H5.7h0c-0.3,0-0.6,0.2-0.8,0.5C4.8,4,4.8,4.3,5.1,4.6l28.2,32.3
			l-33.1,38c-0.2,0.2-0.3,0.6-0.1,0.9c0.1,0.3,0.4,0.5,0.8,0.5h21.5c0.2,0,0.5-0.1,0.6-0.3l22.7-26c0.1,0,0.1-0.1,0.1-0.1l10.6-12.2
			C56.7,37.3,56.7,36.8,56.4,36.5"/>
	</g>
	<path class="st1" d="M89.9,74.9L60.7,41.4c-0.2-0.2-0.4-0.3-0.6-0.3c-0.2,0-0.5,0.1-0.6,0.3L48.8,53.6c-0.3,0.3-0.3,0.8,0,1.1
		L67.3,76c0.2,0.2,0.4,0.3,0.6,0.3h21.3c0.3,0,0.6-0.2,0.8-0.5C90.1,75.4,90.1,75.1,89.9,74.9"/>
</g>
</svg>
